<?xml version="1.0" encoding="UTF-8" standalone="no"?>
<!DOCTYPE svg PUBLIC "-//W3C//DTD SVG 1.1//EN" "http://www.w3.org/Graphics/SVG/1.1/DTD/svg11.dtd">
<svg xmlns="http://www.w3.org/2000/svg" version="1.1" viewBox="0.00 0.00 598.00 195.00">
<path fill="#00ccff" d="
  M 0.00 0.00
  L 24.47 0.00
  L 49.27 81.37
  Q 49.53 82.20 49.79 81.37
  L 75.26 0.00
  L 98.97 0.00
  L 98.98 150.47
  Q 98.98 151.00 98.45 151.00
  L 76.50 151.00
  A 0.50 0.50 0.0 0 1 76.00 150.50
  L 76.00 61.78
  A 0.42 0.42 0.0 0 0 75.17 61.66
  L 56.33 123.80
  Q 55.97 125.00 54.72 125.00
  L 43.96 125.00
  A 1.08 1.07 -8.4 0 1 42.93 124.24
  L 24.29 64.56
  Q 23.00 60.41 23.00 64.76
  L 23.00 150.05
  A 0.88 0.88 0.0 0 1 22.11 150.93
  L 0.00 150.84
  L 0.00 0.00
  Z"
/>
<path fill="#ffffff" d="
  M 223.87 0.00
  L 231.85 0.00
  C 260.12 3.01 265.44 24.10 263.91 49.12
  A 0.93 0.93 0.0 0 1 262.98 50.00
  L 238.74 50.00
  A 0.75 0.75 0.0 0 1 237.99 49.25
  C 238.04 42.13 240.30 27.89 229.62 26.33
  C 220.58 25.02 218.04 32.61 218.02 40.81
  Q 217.96 76.28 218.01 111.75
  C 218.02 119.69 219.42 129.91 230.43 127.40
  C 240.29 125.14 238.07 111.49 238.00 103.98
  A 0.98 0.97 -0.3 0 1 238.98 103.00
  L 263.22 103.00
  A 0.74 0.74 0.0 0 1 263.96 103.67
  C 266.11 127.83 260.23 151.99 231.48 153.74
  C 205.07 155.35 191.57 139.58 191.84 114.00
  Q 192.31 71.03 191.92 41.06
  C 191.64 19.51 200.14 2.32 223.87 0.00
  Z"
/>
<path fill="#ffffff" d="
  M 598.00 71.57
  L 598.00 151.90
  L 572.57 151.93
  Q 572.02 151.93 572.02 151.37
  Q 571.96 114.06 572.00 76.85
  C 572.01 70.53 569.26 65.67 562.23 66.77
  C 556.62 67.64 556.04 72.38 556.03 77.58
  Q 555.96 114.54 556.01 151.48
  A 0.52 0.52 0.0 0 1 555.49 152.00
  L 531.00 152.00
  A 1.00 1.00 0.0 0 1 530.00 151.00
  L 530.00 1.50
  A 0.50 0.50 0.0 0 1 530.50 1.00
  L 555.37 1.00
  A 0.63 0.63 0.0 0 1 556.00 1.63
  L 556.00 56.68
  A 0.37 0.36 -33.6 0 0 556.70 56.82
  Q 557.49 54.98 558.83 53.11
  C 569.09 38.85 589.71 39.08 596.00 56.96
  C 597.48 61.15 597.59 66.73 598.00 71.57
  Z"
/>
<path fill="#ffffff" d="
  M 282.25 58.96
  Q 287.13 48.11 298.60 44.67
  C 319.15 38.51 344.35 46.05 344.11 71.58
  Q 343.78 107.08 344.05 116.19
  C 344.54 132.60 342.11 148.37 323.43 152.64
  C 313.84 154.84 301.12 154.31 292.77 149.59
  C 281.54 143.24 279.51 131.90 279.17 119.56
  Q 278.24 85.95 279.85 65.50
  Q 279.97 64.05 282.25 58.96
  Z
  M 310.29 66.20
  C 305.76 66.63 304.94 72.64 304.94 76.25
  Q 304.96 99.85 305.04 123.43
  C 305.07 133.67 318.47 133.98 318.76 122.25
  Q 319.24 102.44 318.76 77.32
  C 318.65 71.55 317.92 65.48 310.29 66.20
  Z"
/>
<path fill="#ffffff" d="
  M 404.94 141.25
  A 0.32 0.32 0.0 0 0 404.31 141.15
  C 401.71 149.62 395.28 153.77 386.71 153.76
  C 380.43 153.75 374.11 152.63 369.46 148.03
  C 362.04 140.66 360.56 126.62 361.72 116.82
  C 364.47 93.52 382.11 85.88 403.79 88.18
  A 1.03 1.02 4.8 0 0 404.93 87.22
  C 405.30 80.57 406.40 64.00 394.71 66.25
  Q 388.73 67.41 388.01 74.34
  A 0.74 0.73 -87.0 0 1 387.28 75.00
  L 364.00 75.00
  Q 363.38 75.00 363.45 74.39
  Q 363.71 72.12 363.92 69.93
  C 366.20 46.30 388.49 38.77 408.70 44.56
  C 423.20 48.72 428.72 61.46 428.80 76.00
  Q 429.00 113.49 429.03 150.98
  A 1.02 1.02 0.0 0 1 428.01 152.00
  L 405.77 152.00
  A 0.74 0.74 0.0 0 1 405.03 151.27
  L 404.94 141.25
  Z
  M 392.39 109.54
  C 384.70 113.74 382.05 132.72 392.76 132.78
  C 406.40 132.87 405.16 119.09 405.14 109.53
  Q 405.13 108.09 403.69 108.02
  C 400.32 107.87 395.27 107.97 392.39 109.54
  Z"
/>
<path fill="#ffffff" d="
  M 451.19 58.19
  C 458.93 43.15 479.51 40.29 494.18 44.59
  C 503.80 47.41 510.64 53.14 513.76 62.54
  C 515.71 68.43 515.02 76.36 514.99 83.01
  A 0.99 0.99 0.0 0 1 514.00 84.00
  L 490.73 84.00
  A 0.65 0.65 0.0 0 1 490.08 83.38
  C 489.90 79.50 490.40 74.73 489.46 71.62
  C 487.66 65.69 479.77 63.26 475.59 68.83
  Q 473.13 72.10 473.02 78.43
  Q 472.67 99.89 473.29 121.34
  C 473.51 128.77 479.47 134.63 486.62 129.67
  C 490.96 126.66 490.40 120.08 489.94 115.63
  A 0.58 0.57 87.3 0 1 490.51 115.00
  L 515.01 115.00
  A 1.00 1.00 0.0 0 1 516.01 116.00
  C 516.16 134.33 512.12 148.36 492.62 152.74
  C 474.83 156.73 453.41 152.31 448.29 131.94
  Q 447.78 129.90 447.44 122.06
  Q 446.28 94.76 447.92 67.50
  Q 448.12 64.14 451.19 58.19
  Z"
/>
<path fill="#00ccff" d="
  M 140.21 195.00
  L 120.17 195.00
  L 120.06 171.57
  Q 120.06 171.03 120.60 171.03
  C 127.17 170.95 135.50 172.63 139.02 165.28
  C 141.76 159.55 141.28 154.04 139.50 147.44
  Q 125.72 96.38 112.00 45.28
  A 1.02 1.02 0.0 0 1 112.98 44.00
  L 135.20 44.00
  A 0.87 0.86 83.7 0 1 136.04 44.68
  L 149.75 107.42
  A 0.48 0.48 0.0 0 0 150.69 107.41
  L 163.02 44.44
  A 0.55 0.55 0.0 0 1 163.56 44.00
  L 186.25 44.00
  A 0.77 0.76 -84.9 0 1 187.00 44.90
  Q 185.70 52.30 184.05 59.76
  Q 171.29 117.62 158.86 175.56
  Q 155.47 191.36 140.21 195.00
  Z"
/>
</svg>